<?xml version="1.0" standalone="no"?>
<!DOCTYPE svg PUBLIC "-//W3C//DTD SVG 20010904//EN"
 "http://www.w3.org/TR/2001/REC-SVG-20010904/DTD/svg10.dtd">
<svg version="1.0" xmlns="http://www.w3.org/2000/svg"
 width="700.000000pt" height="700.000000pt" viewBox="0 0 700.000000 700.000000"
 preserveAspectRatio="xMidYMid meet">
<metadata>
Created by potrace 1.11, written by Peter Selinger 2001-2013
</metadata>
<g transform="translate(0.000000,700.000000) scale(0.100000,-0.100000)"
fill="#000000" stroke="none">
<path d="M1858 6395 c-2 -1 -30 -5 -63 -8 -152 -15 -324 -88 -450 -191 -145
-118 -237 -251 -295 -424 -37 -111 -40 -127 -44 -272 -4 -101 -1 -129 24 -226
24 -97 81 -233 112 -271 7 -9 -3 -21 -38 -45 -135 -93 -244 -244 -288 -399
-25 -90 -27 -120 -27 -511 l-1 -378 -21 -1 c-12 0 -190 -1 -395 -1 l-372 -1 0
-404 0 -403 151 1 c83 0 154 -2 157 -5 3 -3 6 -511 6 -1128 l1 -1123 109 0
c72 0 110 3 113 11 2 6 5 74 6 150 l2 139 2955 0 2955 0 5 -150 5 -150 110 0
110 0 1 1123 c1 617 4 1126 8 1129 3 3 73 5 156 4 l150 -2 -2 403 -3 403 -370
2 c-203 1 -380 2 -391 2 -21 1 -21 1 -22 379 -1 383 -2 403 -27 504 -38 149
-146 305 -277 395 l-57 40 26 44 c180 316 153 729 -67 1008 -184 232 -433 354
-725 353 -227 -1 -411 -70 -597 -224 -118 -98 -236 -290 -279 -453 -29 -106
-35 -301 -13 -400 9 -38 17 -74 18 -80 7 -32 52 -137 77 -181 16 -28 29 -55
29 -60 0 -5 -27 -29 -59 -53 -103 -75 -178 -167 -233 -288 -56 -123 -61 -170
-63 -593 -2 -212 -3 -387 -4 -390 -1 -4 -837 -5 -911 -1 -13 1 -15 47 -16 354
0 193 -3 384 -7 424 -17 183 -130 379 -280 489 -34 25 -64 48 -66 50 -2 2 17
45 42 96 68 137 89 226 93 388 2 116 -1 149 -21 230 -83 328 -335 583 -659
665 -77 19 -266 40 -278 30z m221 -250 c247 -64 438 -260 497 -510 64 -278
-66 -583 -313 -731 -374 -224 -850 -50 -997 365 -28 79 -30 96 -30 216 0 116
3 139 28 210 118 342 474 539 815 450z m3172 2 c217 -52 411 -231 484 -448 37
-111 43 -267 15 -376 -33 -127 -85 -218 -180 -313 -131 -132 -282 -199 -463
-204 -211 -7 -425 95 -556 264 -177 228 -189 552 -30 790 161 240 448 353 730
287z m-3882 -1390 c75 -56 164 -104 246 -132 57 -19 56 -19 110 -29 22 -4 47
-10 56 -12 14 -4 15 -54 16 -459 l0 -455 -31 -1 c-229 -6 -739 -2 -745 6 -13
17 -5 745 8 795 36 136 109 238 223 311 24 15 44 28 45 28 1 1 33 -23 72 -52z
m1211 17 c109 -71 189 -187 214 -311 8 -39 12 -177 12 -427 l-1 -369 -383 0
c-210 0 -385 3 -389 7 -12 12 -10 897 2 905 6 5 30 11 54 15 51 8 144 38 210
68 57 27 193 116 204 134 11 20 16 18 77 -22z m3254 -61 c68 -66 121 -164 142
-263 11 -52 11 -771 0 -777 -7 -5 -708 -8 -762 -4 -8 1 -11 133 -10 458 l1
456 25 3 c119 17 294 91 404 172 l68 50 47 -28 c25 -16 64 -46 85 -67z m-1323
71 c53 -64 288 -175 405 -191 24 -3 48 -11 52 -17 4 -6 7 -212 7 -458 l0 -448
-25 -1 c-32 -1 -731 -1 -746 0 -9 1 -11 106 -10 394 2 372 4 395 24 450 40
112 103 195 192 256 50 34 81 39 101 15z m2259 -1520 l0 -174 -3270 0 -3270 0
0 174 0 174 3270 0 3270 0 0 -174z m-437 -404 l127 0 -2 -862 -3 -862 -2957
-1 -2956 0 -1 862 0 863 307 2 c243 2 2161 2 5485 -2z"/>
<path d="M1541 5360 c-79 -18 -124 -113 -90 -189 48 -108 200 -108 249 0 48
108 -43 215 -159 189z"/>
<path d="M2187 5351 c-95 -48 -103 -187 -14 -241 91 -56 213 12 210 117 -4
103 -106 169 -196 124z"/>
<path d="M4687 5347 c-90 -51 -94 -176 -8 -234 91 -61 211 3 211 113 0 103
-115 172 -203 121z"/>
<path d="M5362 5349 c-129 -64 -80 -259 65 -259 82 0 139 66 131 152 -10 97
-107 151 -196 107z"/>
</g>
</svg>
